<svg id="Layer_1" data-name="Layer 1" xmlns="http://www.w3.org/2000/svg" viewBox="0 0 195 111">
    <defs>
        <style>
        .cls-1 {
            fill: none;
            stroke: #373C5F;
            stroke-width: 4px;
        }

        .cls-2 {
            isolation: isolate;
        }

        .cls-3 {
            fill: #373C5F;
        }
        </style>
    </defs>
    <title>sma-logo</title>
    <g id="Page-1">
        <g id="Logo-1">
            <g id="Group-2">
                <g id="Group">
                    <path id="Combined-Shape" class="cls-1" d="M22.28,106.81l1.44-15.3H6a4,4,0,0,1-4-4V6A4,4,0,0,1,6,2H189a4,4,0,0,1,4,4V87.52a4,4,0,0,1-4,4H43.58Z" />
                    <g id="Logo">
                        <g id="SMA" class="cls-2">
                            <g class="cls-2">
                                <path class="cls-3" d="M45.71,32.7a11.59,11.59,0,0,0-4.31-3.34,12.16,12.16,0,0,0-5.14-1.24,15.34,15.34,0,0,0-2.59.22,6.69,6.69,0,0,0-2.36.86,5.83,5.83,0,0,0-1.76,1.65,4.39,4.39,0,0,0-.71,2.59,4.18,4.18,0,0,0,.56,2.25A5,5,0,0,0,31,37.28a14.72,14.72,0,0,0,2.59,1.24q1.5,0.56,3.38,1.16,2.7,0.9,5.63,2A21.06,21.06,0,0,1,48,44.55a15.17,15.17,0,0,1,4,4.46,12.85,12.85,0,0,1,1.58,6.64,17.34,17.34,0,0,1-1.69,7.91,15.78,15.78,0,0,1-4.54,5.51,19.44,19.44,0,0,1-6.52,3.22,27.44,27.44,0,0,1-7.58,1,31.29,31.29,0,0,1-11-2,23.34,23.34,0,0,1-8.85-5.66l8.4-8.55a15.49,15.49,0,0,0,5.14,4,13.93,13.93,0,0,0,6.34,1.61,12.69,12.69,0,0,0,2.77-.3,6.91,6.91,0,0,0,2.36-1,4.89,4.89,0,0,0,1.61-1.8,5.67,5.67,0,0,0,.6-2.7,4.28,4.28,0,0,0-.75-2.55,7.35,7.35,0,0,0-2.14-1.91A17.32,17.32,0,0,0,34.2,51q-2.06-.71-4.69-1.54a44.68,44.68,0,0,1-5-2,16.69,16.69,0,0,1-4.35-2.89,13.36,13.36,0,0,1-3.07-4.28,14.48,14.48,0,0,1-1.16-6.11,15,15,0,0,1,1.8-7.58,15.65,15.65,0,0,1,4.73-5.17,20.31,20.31,0,0,1,6.6-3,30,30,0,0,1,7.42-.94,27.58,27.58,0,0,1,9.19,1.65,23.69,23.69,0,0,1,8.21,4.88Z" />
                                <path class="cls-3" d="M109.53,72l0.3-37.58h-0.22L95.81,72h-9L73.38,34.42H73.16L73.46,72H61.38V18.9H79.63L91.72,53H92l11.56-34h18.55V72h-12.6Z" />
                                <path class="cls-3" d="M168.41,72l-4.12-10.42H143.73L139.83,72H125.88l22.27-53.1h12.45L182.66,72H168.41ZM154.16,33.08L147.41,51.3h13.35Z" />
                            </g>
                        </g>
                    </g>
                </g>
            </g>
        </g>
    </g>
</svg>